<?xml version="1.0" encoding="UTF-8"?>
<svg xmlns="http://www.w3.org/2000/svg" xmlns:xlink="http://www.w3.org/1999/xlink" width="864" height="432" viewBox="0 0 864 432">
<defs>
<g>
<g id="glyph-0-0">
<path d="M 6.234375 -3.390625 L 3.5625 -3.390625 L 3.5625 -2.671875 L 5.515625 -2.671875 L 5.515625 -2.484375 C 5.515625 -1.34375 4.671875 -0.515625 3.5 -0.515625 C 2.84375 -0.515625 2.265625 -0.75 1.875 -1.171875 C 1.453125 -1.625 1.203125 -2.390625 1.203125 -3.1875 C 1.203125 -4.765625 2.109375 -5.796875 3.453125 -5.796875 C 4.4375 -5.796875 5.140625 -5.296875 5.3125 -4.46875 L 6.15625 -4.46875 C 5.921875 -5.765625 4.9375 -6.515625 3.46875 -6.515625 C 2.6875 -6.515625 2.046875 -6.3125 1.546875 -5.90625 C 0.796875 -5.28125 0.390625 -4.296875 0.390625 -3.140625 C 0.390625 -1.171875 1.59375 0.203125 3.328125 0.203125 C 4.203125 0.203125 4.875 -0.125 5.515625 -0.8125 L 5.71875 0.03125 L 6.234375 0.03125 Z M 6.234375 -3.390625 "/>
</g>
<g id="glyph-0-1">
<path d="M 4.234375 0 L 4.234375 -4.609375 L 3.515625 -4.609375 L 3.515625 -2 C 3.515625 -1.0625 3.015625 -0.4375 2.25 -0.4375 C 1.671875 -0.4375 1.296875 -0.796875 1.296875 -1.34375 L 1.296875 -4.609375 L 0.578125 -4.609375 L 0.578125 -1.0625 C 0.578125 -0.296875 1.140625 0.203125 2.046875 0.203125 C 2.71875 0.203125 3.15625 -0.03125 3.578125 -0.640625 L 3.578125 0 Z M 4.234375 0 "/>
</g>
<g id="glyph-0-2">
<path d="M 3.40625 -4.609375 L 2.140625 -1.015625 L 0.953125 -4.609375 L 0.171875 -4.609375 L 1.734375 0.015625 L 1.453125 0.75 C 1.328125 1.078125 1.171875 1.203125 0.859375 1.203125 C 0.734375 1.203125 0.640625 1.171875 0.46875 1.140625 L 0.46875 1.796875 C 0.625 1.875 0.78125 1.921875 0.96875 1.921875 C 1.203125 1.921875 1.453125 1.84375 1.65625 1.703125 C 1.875 1.53125 2.015625 1.34375 2.15625 0.96875 L 4.203125 -4.609375 Z M 3.40625 -4.609375 "/>
</g>
<g id="glyph-0-3">
<path d="M 4.703125 -0.4375 C 4.625 -0.40625 4.59375 -0.40625 4.546875 -0.40625 C 4.296875 -0.40625 4.15625 -0.546875 4.15625 -0.78125 L 4.15625 -3.484375 C 4.15625 -4.296875 3.546875 -4.734375 2.421875 -4.734375 C 1.734375 -4.734375 1.203125 -4.546875 0.890625 -4.203125 C 0.671875 -3.96875 0.59375 -3.703125 0.578125 -3.25 L 1.3125 -3.25 C 1.375 -3.8125 1.703125 -4.0625 2.390625 -4.0625 C 3.0625 -4.0625 3.421875 -3.8125 3.421875 -3.375 L 3.421875 -3.1875 C 3.40625 -2.875 3.25 -2.75 2.65625 -2.671875 C 1.625 -2.546875 1.453125 -2.5 1.171875 -2.390625 C 0.640625 -2.15625 0.375 -1.765625 0.375 -1.15625 C 0.375 -0.328125 0.953125 0.203125 1.875 0.203125 C 2.46875 0.203125 2.921875 0 3.453125 -0.46875 C 3.5 0 3.734375 0.203125 4.203125 0.203125 C 4.359375 0.203125 4.453125 0.1875 4.703125 0.125 Z M 3.421875 -1.453125 C 3.421875 -1.203125 3.359375 -1.0625 3.125 -0.859375 C 2.828125 -0.578125 2.46875 -0.4375 2.046875 -0.4375 C 1.46875 -0.4375 1.140625 -0.71875 1.140625 -1.171875 C 1.140625 -1.65625 1.453125 -1.90625 2.25 -2.015625 C 3.03125 -2.125 3.171875 -2.15625 3.421875 -2.28125 Z M 3.421875 -1.453125 "/>
</g>
<g id="glyph-0-4">
<path d="M 0.609375 -4.609375 L 0.609375 0 L 1.359375 0 L 1.359375 -2.546875 C 1.359375 -3.484375 1.84375 -4.09375 2.609375 -4.09375 C 3.1875 -4.09375 3.546875 -3.75 3.546875 -3.1875 L 3.546875 0 L 4.28125 0 L 4.28125 -3.484375 C 4.28125 -4.25 3.71875 -4.734375 2.828125 -4.734375 C 2.140625 -4.734375 1.703125 -4.484375 1.296875 -3.828125 L 1.296875 -4.609375 Z M 0.609375 -4.609375 "/>
</g>
<g id="glyph-0-5">
<path d="M 4.515625 -2.0625 C 4.515625 -2.765625 4.453125 -3.1875 4.328125 -3.53125 C 4.03125 -4.28125 3.328125 -4.734375 2.46875 -4.734375 C 1.171875 -4.734375 0.359375 -3.765625 0.359375 -2.25 C 0.359375 -0.71875 1.140625 0.203125 2.453125 0.203125 C 3.5 0.203125 4.234375 -0.390625 4.421875 -1.40625 L 3.671875 -1.40625 C 3.46875 -0.796875 3.0625 -0.46875 2.46875 -0.46875 C 2 -0.46875 1.609375 -0.6875 1.359375 -1.078125 C 1.1875 -1.34375 1.125 -1.59375 1.125 -2.0625 Z M 1.140625 -2.65625 C 1.203125 -3.515625 1.71875 -4.0625 2.453125 -4.0625 C 3.203125 -4.0625 3.71875 -3.484375 3.71875 -2.65625 Z M 1.140625 -2.65625 "/>
</g>
<g id="glyph-0-6">
<path d="M 1.515625 -6.40625 L 0.703125 -6.40625 L 0.703125 0 L 4.6875 0 L 4.6875 -0.71875 L 1.515625 -0.71875 Z M 1.515625 -6.40625 "/>
</g>
<g id="glyph-0-7">
</g>
<g id="glyph-0-8">
<path d="M 1.640625 -2.765625 L 3.75 -2.765625 C 4.484375 -2.765625 4.796875 -2.40625 4.796875 -1.625 L 4.796875 -1.046875 C 4.796875 -0.65625 4.859375 -0.265625 4.984375 0 L 5.96875 0 L 5.96875 -0.203125 C 5.671875 -0.40625 5.609375 -0.640625 5.59375 -1.5 C 5.578125 -2.546875 5.40625 -2.875 4.71875 -3.171875 C 5.4375 -3.53125 5.734375 -3.953125 5.734375 -4.703125 C 5.734375 -5.8125 5.046875 -6.40625 3.78125 -6.40625 L 0.8125 -6.40625 L 0.8125 0 L 1.640625 0 Z M 1.640625 -3.484375 L 1.640625 -5.6875 L 3.609375 -5.6875 C 4.078125 -5.6875 4.34375 -5.625 4.546875 -5.4375 C 4.765625 -5.265625 4.875 -4.96875 4.875 -4.59375 C 4.875 -3.828125 4.484375 -3.484375 3.609375 -3.484375 Z M 1.640625 -3.484375 "/>
</g>
<g id="glyph-0-9">
<path d="M 4.515625 -2.0625 C 4.515625 -2.765625 4.453125 -3.1875 4.328125 -3.53125 C 4.03125 -4.28125 3.328125 -4.734375 2.46875 -4.734375 C 1.171875 -4.734375 0.359375 -3.765625 0.359375 -2.25 C 0.359375 -0.71875 1.140625 0.203125 2.453125 0.203125 C 3.5 0.203125 4.234375 -0.390625 4.421875 -1.40625 L 3.671875 -1.40625 C 3.46875 -0.796875 3.0625 -0.46875 2.46875 -0.46875 C 2 -0.46875 1.609375 -0.6875 1.359375 -1.078125 C 1.1875 -1.34375 1.125 -1.59375 1.125 -2.0625 Z M 1.140625 -2.65625 C 1.203125 -3.515625 1.71875 -4.0625 2.453125 -4.0625 C 3.203125 -4.0625 3.71875 -3.484375 3.71875 -2.65625 Z M 2.703125 -6.515625 L 1.859375 -5.203125 L 2.390625 -5.203125 L 3.703125 -6.515625 Z M 2.703125 -6.515625 "/>
</g>
<g id="glyph-0-10">
<path d="M 1.3125 -4.609375 L 0.59375 -4.609375 L 0.59375 0 L 1.3125 0 Z M 1.3125 -6.40625 L 0.578125 -6.40625 L 0.578125 -5.484375 L 1.3125 -5.484375 Z M 1.3125 -6.40625 "/>
</g>
<g id="glyph-0-11">
<path d="M 2.390625 -4.734375 C 1.09375 -4.734375 0.3125 -3.8125 0.3125 -2.265625 C 0.3125 -0.71875 1.09375 0.203125 2.40625 0.203125 C 3.703125 0.203125 4.484375 -0.71875 4.484375 -2.234375 C 4.484375 -3.828125 3.734375 -4.734375 2.390625 -4.734375 Z M 2.40625 -4.0625 C 3.234375 -4.0625 3.71875 -3.390625 3.71875 -2.25 C 3.71875 -1.15625 3.203125 -0.46875 2.40625 -0.46875 C 1.578125 -0.46875 1.078125 -1.15625 1.078125 -2.265625 C 1.078125 -3.390625 1.578125 -4.0625 2.40625 -4.0625 Z M 2.40625 -4.0625 "/>
</g>
<g id="glyph-0-12">
<path d="M 4.109375 0 L 5.921875 -5.375 L 5.921875 0 L 6.6875 0 L 6.6875 -6.40625 L 5.5625 -6.40625 L 3.6875 -0.828125 L 1.796875 -6.40625 L 0.65625 -6.40625 L 0.65625 0 L 1.4375 0 L 1.4375 -5.375 L 3.25 0 Z M 4.109375 0 "/>
</g>
<g id="glyph-0-13">
<path d="M 2.234375 -4.609375 L 1.484375 -4.609375 L 1.484375 -5.875 L 0.75 -5.875 L 0.75 -4.609375 L 0.125 -4.609375 L 0.125 -4.015625 L 0.75 -4.015625 L 0.75 -0.53125 C 0.75 -0.046875 1.0625 0.203125 1.640625 0.203125 C 1.828125 0.203125 1.984375 0.1875 2.234375 0.140625 L 2.234375 -0.46875 C 2.125 -0.453125 2.03125 -0.4375 1.875 -0.4375 C 1.5625 -0.4375 1.484375 -0.53125 1.484375 -0.859375 L 1.484375 -4.015625 L 2.234375 -4.015625 Z M 2.234375 -4.609375 "/>
</g>
<g id="glyph-0-14">
<path d="M 4.359375 -6.40625 L 3.625 -6.40625 L 3.625 -4.03125 C 3.3125 -4.5 2.828125 -4.734375 2.203125 -4.734375 C 1.015625 -4.734375 0.234375 -3.78125 0.234375 -2.3125 C 0.234375 -0.75 0.984375 0.203125 2.234375 0.203125 C 2.875 0.203125 3.3125 -0.03125 3.703125 -0.609375 L 3.703125 0 L 4.359375 0 Z M 2.328125 -4.0625 C 3.125 -4.0625 3.625 -3.359375 3.625 -2.25 C 3.625 -1.1875 3.109375 -0.484375 2.34375 -0.484375 C 1.53125 -0.484375 1 -1.203125 1 -2.265625 C 1 -3.34375 1.53125 -4.0625 2.328125 -4.0625 Z M 2.328125 -4.0625 "/>
</g>
<g id="glyph-0-15">
<path d="M 2.5 0 L 4.28125 -4.609375 L 3.453125 -4.609375 L 2.140625 -0.875 L 0.921875 -4.609375 L 0.09375 -4.609375 L 1.703125 0 Z M 2.5 0 "/>
</g>
<g id="glyph-0-16">
<path d="M 3.859375 -3.328125 C 3.84375 -4.234375 3.25 -4.734375 2.1875 -4.734375 C 1.109375 -4.734375 0.40625 -4.1875 0.40625 -3.328125 C 0.40625 -2.609375 0.78125 -2.265625 1.875 -2 L 2.5625 -1.84375 C 3.0625 -1.71875 3.265625 -1.53125 3.265625 -1.203125 C 3.265625 -0.765625 2.84375 -0.46875 2.203125 -0.46875 C 1.796875 -0.46875 1.46875 -0.59375 1.28125 -0.78125 C 1.171875 -0.921875 1.125 -1.046875 1.078125 -1.375 L 0.296875 -1.375 C 0.328125 -0.3125 0.9375 0.203125 2.140625 0.203125 C 3.296875 0.203125 4.03125 -0.375 4.03125 -1.265625 C 4.03125 -1.9375 3.65625 -2.328125 2.734375 -2.546875 L 2.03125 -2.703125 C 1.4375 -2.84375 1.171875 -3.046875 1.171875 -3.375 C 1.171875 -3.796875 1.5625 -4.0625 2.15625 -4.0625 C 2.75 -4.0625 3.0625 -3.8125 3.078125 -3.328125 Z M 3.859375 -3.328125 "/>
</g>
<g id="glyph-0-17">
<path d="M 0.609375 -4.609375 L 0.609375 0 L 1.34375 0 L 1.34375 -2.390625 C 1.359375 -3.5 1.8125 -4 2.828125 -3.96875 L 2.828125 -4.71875 C 2.703125 -4.734375 2.625 -4.734375 2.546875 -4.734375 C 2.0625 -4.734375 1.703125 -4.453125 1.28125 -3.78125 L 1.28125 -4.609375 Z M 0.609375 -4.609375 "/>
</g>
<g id="glyph-0-18">
<path d="M 0.609375 -4.609375 L 0.609375 0 L 1.359375 0 L 1.359375 -2.890625 C 1.359375 -3.5625 1.84375 -4.09375 2.4375 -4.09375 C 2.984375 -4.09375 3.296875 -3.765625 3.296875 -3.171875 L 3.296875 0 L 4.03125 0 L 4.03125 -2.890625 C 4.03125 -3.5625 4.515625 -4.09375 5.109375 -4.09375 C 5.640625 -4.09375 5.96875 -3.75 5.96875 -3.171875 L 5.96875 0 L 6.703125 0 L 6.703125 -3.453125 C 6.703125 -4.28125 6.234375 -4.734375 5.359375 -4.734375 C 4.75 -4.734375 4.375 -4.5625 3.953125 -4.03125 C 3.671875 -4.53125 3.3125 -4.734375 2.703125 -4.734375 C 2.09375 -4.734375 1.6875 -4.515625 1.296875 -3.953125 L 1.296875 -4.609375 Z M 0.609375 -4.609375 "/>
</g>
<g id="glyph-0-19">
<path d="M 4.140625 -3.0625 C 4.109375 -3.515625 4.015625 -3.796875 3.828125 -4.0625 C 3.515625 -4.484375 2.96875 -4.734375 2.328125 -4.734375 C 1.078125 -4.734375 0.265625 -3.75 0.265625 -2.21875 C 0.265625 -0.734375 1.0625 0.203125 2.3125 0.203125 C 3.40625 0.203125 4.109375 -0.453125 4.203125 -1.578125 L 3.453125 -1.578125 C 3.328125 -0.84375 2.953125 -0.46875 2.328125 -0.46875 C 1.515625 -0.46875 1.03125 -1.140625 1.03125 -2.21875 C 1.03125 -3.375 1.515625 -4.0625 2.3125 -4.0625 C 2.921875 -4.0625 3.3125 -3.703125 3.40625 -3.0625 Z M 4.140625 -3.0625 "/>
</g>
<g id="glyph-0-20">
<path d="M 1.34375 -6.40625 L 0.59375 -6.40625 L 0.59375 0 L 1.34375 0 Z M 1.34375 -6.40625 "/>
</g>
<g id="glyph-0-21">
<path d="M 0.609375 -6.40625 L 0.609375 0 L 1.34375 0 L 1.34375 -2.546875 C 1.34375 -3.484375 1.84375 -4.09375 2.59375 -4.09375 C 2.84375 -4.09375 3.0625 -4.03125 3.25 -3.890625 C 3.453125 -3.734375 3.546875 -3.515625 3.546875 -3.1875 L 3.546875 0 L 4.28125 0 L 4.28125 -3.484375 C 4.28125 -4.25 3.71875 -4.734375 2.828125 -4.734375 C 2.171875 -4.734375 1.78125 -4.546875 1.34375 -3.96875 L 1.34375 -6.40625 Z M 0.609375 -6.40625 "/>
</g>
<g id="glyph-0-22">
<path d="M 0.46875 1.921875 L 1.21875 1.921875 L 1.21875 -0.484375 C 1.59375 -0.015625 2.03125 0.203125 2.625 0.203125 C 3.828125 0.203125 4.59375 -0.75 4.59375 -2.21875 C 4.59375 -3.78125 3.84375 -4.734375 2.625 -4.734375 C 2 -4.734375 1.5 -4.453125 1.15625 -3.921875 L 1.15625 -4.609375 L 0.46875 -4.609375 Z M 2.5 -4.0625 C 3.3125 -4.0625 3.828125 -3.34375 3.828125 -2.25 C 3.828125 -1.203125 3.296875 -0.484375 2.5 -0.484375 C 1.71875 -0.484375 1.21875 -1.1875 1.21875 -2.265625 C 1.21875 -3.359375 1.71875 -4.0625 2.5 -4.0625 Z M 2.5 -4.0625 "/>
</g>
<g id="glyph-0-23">
<path d="M 2.5625 -2.390625 L 4.109375 -4.609375 L 3.296875 -4.609375 L 2.1875 -2.9375 L 1.078125 -4.609375 L 0.234375 -4.609375 L 1.78125 -2.34375 L 0.15625 0 L 0.984375 0 L 2.15625 -1.765625 L 3.3125 0 L 4.15625 0 Z M 2.5625 -2.390625 "/>
</g>
<g id="glyph-1-0">
<path d="M 3.140625 0 L 5.34375 -5.765625 L 4.3125 -5.765625 L 2.6875 -1.09375 L 1.140625 -5.765625 L 0.109375 -5.765625 L 2.140625 0 Z M 3.140625 0 "/>
</g>
<g id="glyph-1-1">
<path d="M 5.890625 -0.53125 C 5.78125 -0.515625 5.734375 -0.515625 5.6875 -0.515625 C 5.375 -0.515625 5.1875 -0.6875 5.1875 -0.96875 L 5.1875 -4.359375 C 5.1875 -5.375 4.4375 -5.921875 3.03125 -5.921875 C 2.171875 -5.921875 1.5 -5.6875 1.109375 -5.265625 C 0.84375 -4.96875 0.734375 -4.625 0.71875 -4.0625 L 1.640625 -4.0625 C 1.71875 -4.765625 2.140625 -5.078125 2.984375 -5.078125 C 3.828125 -5.078125 4.28125 -4.78125 4.28125 -4.21875 L 4.28125 -3.984375 C 4.265625 -3.59375 4.0625 -3.4375 3.328125 -3.34375 C 2.03125 -3.171875 1.828125 -3.140625 1.46875 -2.984375 C 0.796875 -2.703125 0.46875 -2.203125 0.46875 -1.453125 C 0.46875 -0.40625 1.1875 0.25 2.359375 0.25 C 3.078125 0.25 3.65625 0 4.3125 -0.59375 C 4.375 0 4.65625 0.25 5.265625 0.25 C 5.453125 0.25 5.578125 0.234375 5.890625 0.15625 Z M 4.28125 -1.8125 C 4.28125 -1.5 4.1875 -1.3125 3.921875 -1.0625 C 3.546875 -0.71875 3.09375 -0.546875 2.546875 -0.546875 C 1.84375 -0.546875 1.421875 -0.890625 1.421875 -1.46875 C 1.421875 -2.078125 1.8125 -2.390625 2.8125 -2.53125 C 3.78125 -2.65625 3.96875 -2.703125 4.28125 -2.84375 Z M 4.28125 -1.8125 "/>
</g>
<g id="glyph-1-2">
<path d="M 0.765625 -5.765625 L 0.765625 0 L 1.6875 0 L 1.6875 -2.984375 C 1.6875 -4.375 2.265625 -5 3.53125 -4.96875 L 3.53125 -5.890625 C 3.375 -5.921875 3.28125 -5.921875 3.171875 -5.921875 C 2.578125 -5.921875 2.140625 -5.578125 1.609375 -4.71875 L 1.609375 -5.765625 Z M 0.765625 -5.765625 "/>
</g>
<g id="glyph-1-3">
<path d="M 1.65625 -5.765625 L 0.734375 -5.765625 L 0.734375 0 L 1.65625 0 Z M 1.65625 -8.015625 L 0.71875 -8.015625 L 0.71875 -6.859375 L 1.65625 -6.859375 Z M 1.65625 -8.015625 "/>
</g>
<g id="glyph-1-4">
<path d="M 0.59375 -8.015625 L 0.59375 0 L 1.421875 0 L 1.421875 -0.734375 C 1.859375 -0.0625 2.4375 0.25 3.25 0.25 C 4.765625 0.25 5.75 -0.984375 5.75 -2.90625 C 5.75 -4.78125 4.8125 -5.921875 3.28125 -5.921875 C 2.5 -5.921875 1.9375 -5.625 1.5 -4.984375 L 1.5 -8.015625 Z M 3.109375 -5.078125 C 4.140625 -5.078125 4.796875 -4.1875 4.796875 -2.8125 C 4.796875 -1.5 4.109375 -0.609375 3.109375 -0.609375 C 2.140625 -0.609375 1.5 -1.484375 1.5 -2.84375 C 1.5 -4.1875 2.140625 -5.078125 3.109375 -5.078125 Z M 3.109375 -5.078125 "/>
</g>
<g id="glyph-1-5">
<path d="M 1.671875 -8.015625 L 0.75 -8.015625 L 0.75 0 L 1.671875 0 Z M 1.671875 -8.015625 "/>
</g>
<g id="glyph-1-6">
<path d="M 5.640625 -2.578125 C 5.640625 -3.453125 5.578125 -3.984375 5.40625 -4.40625 C 5.03125 -5.359375 4.15625 -5.921875 3.078125 -5.921875 C 1.46875 -5.921875 0.4375 -4.703125 0.4375 -2.8125 C 0.4375 -0.90625 1.4375 0.25 3.0625 0.25 C 4.375 0.25 5.296875 -0.5 5.515625 -1.75 L 4.59375 -1.75 C 4.34375 -0.984375 3.828125 -0.59375 3.09375 -0.59375 C 2.515625 -0.59375 2.015625 -0.859375 1.703125 -1.34375 C 1.484375 -1.671875 1.40625 -2 1.390625 -2.578125 Z M 1.421875 -3.328125 C 1.5 -4.390625 2.140625 -5.078125 3.0625 -5.078125 C 4 -5.078125 4.65625 -4.359375 4.65625 -3.328125 Z M 1.421875 -3.328125 "/>
</g>
</g>
<clipPath id="clip-0">
<path clip-rule="nonzero" d="M 118 78 L 149 78 L 149 86.730469 L 118 86.730469 Z M 118 78 "/>
</clipPath>
<clipPath id="clip-1">
<path clip-rule="nonzero" d="M 664 78 L 695 78 L 695 86.730469 L 664 86.730469 Z M 664 78 "/>
</clipPath>
</defs>
<rect x="-86.4" y="-43.2" width="1036.8" height="518.4" fill="rgb(100%, 100%, 100%)" fill-opacity="1"/>
<path fill-rule="nonzero" fill="rgb(14.901961%, 27.45098%, 32.54902%)" fill-opacity="1" d="M 133.769531 220.5 L 133.769531 113.484375 L 130.144531 113.546875 L 126.519531 113.730469 L 122.90625 114.039062 L 119.308594 114.464844 L 115.722656 115.015625 L 112.160156 115.6875 L 108.621094 116.480469 L 105.113281 117.394531 L 101.632812 118.421875 L 98.195312 119.570312 L 94.796875 120.835938 L 91.441406 122.210938 L 88.136719 123.703125 L 84.882812 125.304688 L 81.683594 127.015625 L 78.546875 128.832031 L 75.472656 130.757812 L 72.464844 132.785156 L 69.53125 134.910156 L 66.667969 137.136719 L 63.878906 139.457031 L 61.175781 141.871094 L 58.554688 144.375 L 56.015625 146.96875 L 53.570312 149.644531 L 51.214844 152.402344 L 48.957031 155.238281 L 46.792969 158.148438 L 44.730469 161.132812 L 42.769531 164.183594 L 40.914062 167.296875 L 39.164062 170.476562 L 37.523438 173.710938 L 35.996094 176.996094 L 34.578125 180.335938 L 33.273438 183.71875 L 32.085938 187.144531 L 31.011719 190.609375 L 30.058594 194.105469 L 29.226562 197.636719 L 28.511719 201.191406 L 27.917969 204.769531 L 27.445312 208.363281 L 27.09375 211.972656 L 26.867188 215.59375 L 26.761719 219.21875 L 26.78125 222.84375 L 26.921875 226.464844 L 27.183594 230.082031 L 27.570312 233.6875 L 28.078125 237.28125 L 28.707031 240.851562 L 29.457031 244.398438 L 30.324219 247.917969 L 31.3125 251.40625 L 32.421875 254.863281 L 33.644531 258.277344 L 34.980469 261.644531 L 36.429688 264.96875 L 37.992188 268.242188 L 39.664062 271.460938 L 41.445312 274.617188 L 43.332031 277.714844 L 45.324219 280.746094 L 47.414062 283.707031 L 49.605469 286.597656 L 51.894531 289.410156 L 54.277344 292.144531 L 56.75 294.796875 L 59.308594 297.363281 L 61.957031 299.84375 L 64.6875 302.230469 L 67.496094 304.523438 L 70.378906 306.722656 L 73.339844 308.820312 L 76.363281 310.816406 L 79.457031 312.710938 L 82.613281 314.496094 L 85.828125 316.175781 L 89.097656 317.746094 L 92.417969 319.203125 L 95.785156 320.546875 L 99.195312 321.777344 L 102.648438 322.890625 L 106.132812 323.886719 L 109.652344 324.761719 L 113.199219 325.519531 L 116.769531 326.15625 L 120.359375 326.671875 L 123.964844 327.066406 L 127.578125 327.335938 L 131.203125 327.484375 L 134.828125 327.507812 L 138.453125 327.414062 L 142.074219 327.191406 L 145.683594 326.851562 L 149.28125 326.386719 L 152.859375 325.796875 L 156.414062 325.089844 L 159.945312 324.265625 L 163.445312 323.316406 L 166.914062 322.253906 L 170.339844 321.070312 L 173.726562 319.773438 L 177.066406 318.363281 L 180.359375 316.839844 L 183.597656 315.207031 L 186.777344 313.464844 L 189.894531 311.617188 L 192.949219 309.660156 L 195.9375 307.605469 L 198.851562 305.449219 L 201.691406 303.195312 L 204.457031 300.847656 L 207.136719 298.40625 L 209.734375 295.875 L 212.246094 293.257812 L 214.664062 290.558594 L 216.992188 287.777344 L 219.222656 284.917969 L 221.355469 281.984375 L 223.390625 278.984375 L 225.320312 275.914062 L 227.144531 272.777344 L 228.863281 269.585938 L 230.472656 266.335938 L 231.96875 263.03125 L 233.351562 259.679688 L 234.625 256.285156 L 235.777344 252.847656 L 236.816406 249.371094 L 237.734375 245.863281 L 238.535156 242.328125 L 239.214844 238.765625 L 239.773438 235.183594 L 240.207031 231.582031 L 240.523438 227.96875 L 240.714844 224.347656 L 240.785156 220.722656 L 240.730469 217.097656 L 240.554688 213.476562 L 240.253906 209.863281 L 239.832031 206.261719 L 239.289062 202.675781 L 238.625 199.109375 L 237.839844 195.570312 L 236.933594 192.058594 L 235.910156 188.578125 L 234.773438 185.136719 L 233.515625 181.734375 L 232.144531 178.378906 L 230.660156 175.070312 L 229.066406 171.8125 L 227.363281 168.609375 L 225.550781 165.46875 L 223.632812 162.390625 L 221.613281 159.378906 L 219.492188 156.4375 L 217.273438 153.570312 L 214.957031 150.78125 L 212.546875 148.070312 L 210.046875 145.441406 L 207.460938 142.902344 L 204.789062 140.449219 L 202.039062 138.089844 L 199.207031 135.824219 L 196.300781 133.65625 L 193.320312 131.585938 L 190.273438 129.621094 L 187.164062 127.757812 L 183.992188 126 L 180.761719 124.355469 L 177.476562 122.816406 L 174.140625 121.390625 L 170.761719 120.082031 L 167.335938 118.886719 L 163.875 117.808594 L 160.378906 116.847656 L 156.851562 116.003906 L 153.296875 115.28125 L 149.722656 114.679688 L 146.125 114.199219 L 142.519531 113.84375 L 142.214844 117.519531 L 141.914062 121.199219 L 141.613281 124.875 L 141.3125 128.554688 L 141.007812 132.230469 L 140.40625 139.589844 L 140.105469 143.265625 L 139.804688 146.945312 L 139.5 150.621094 L 139.199219 154.300781 L 138.898438 157.976562 L 138.597656 161.65625 L 138.292969 165.332031 L 137.992188 169.011719 L 137.691406 172.6875 L 137.390625 176.367188 L 137.085938 180.042969 L 136.785156 183.722656 L 136.484375 187.398438 L 136.183594 191.078125 L 135.878906 194.753906 L 135.578125 198.433594 L 135.277344 202.109375 L 134.976562 205.789062 L 134.675781 209.464844 L 134.371094 213.144531 L 134.070312 216.820312 Z M 133.769531 220.5 "/>
<path fill-rule="nonzero" fill="rgb(54.117647%, 69.411765%, 49.019608%)" fill-opacity="1" d="M 133.769531 220.5 L 134.070312 216.820312 L 134.371094 213.144531 L 134.675781 209.464844 L 134.976562 205.789062 L 135.277344 202.109375 L 135.578125 198.433594 L 135.878906 194.753906 L 136.183594 191.078125 L 136.484375 187.398438 L 136.785156 183.722656 L 137.085938 180.042969 L 137.390625 176.367188 L 137.691406 172.6875 L 137.992188 169.011719 L 138.292969 165.332031 L 138.597656 161.65625 L 138.898438 157.976562 L 139.199219 154.300781 L 139.5 150.621094 L 139.804688 146.945312 L 140.105469 143.265625 L 140.40625 139.589844 L 141.007812 132.230469 L 141.3125 128.554688 L 141.613281 124.875 L 141.914062 121.199219 L 142.214844 117.519531 L 142.519531 113.84375 L 142.515625 113.84375 L 142.210938 117.519531 L 141.910156 121.199219 L 141.609375 124.875 L 141.308594 128.554688 L 141.007812 132.230469 L 140.703125 135.910156 L 140.402344 139.585938 L 139.800781 146.945312 L 139.5 150.621094 L 139.195312 154.300781 L 138.894531 157.976562 L 138.59375 161.65625 L 138.292969 165.332031 L 137.992188 169.011719 L 137.6875 172.6875 L 137.386719 176.367188 L 137.085938 180.042969 L 136.785156 183.722656 L 136.484375 187.398438 L 136.179688 191.078125 L 135.878906 194.753906 L 135.578125 198.433594 L 135.277344 202.109375 L 134.976562 205.789062 L 134.671875 209.464844 L 134.371094 213.144531 L 134.070312 216.820312 Z M 133.769531 220.5 "/>
<path fill-rule="nonzero" fill="rgb(16.470588%, 61.568627%, 56.078431%)" fill-opacity="1" d="M 133.769531 220.5 L 134.070312 216.820312 L 134.371094 213.144531 L 134.671875 209.464844 L 134.976562 205.789062 L 135.277344 202.109375 L 135.578125 198.433594 L 135.878906 194.753906 L 136.179688 191.078125 L 136.484375 187.398438 L 136.785156 183.722656 L 137.085938 180.042969 L 137.386719 176.367188 L 137.6875 172.6875 L 137.992188 169.011719 L 138.292969 165.332031 L 138.59375 161.65625 L 138.894531 157.976562 L 139.195312 154.300781 L 139.5 150.621094 L 139.800781 146.945312 L 140.402344 139.585938 L 140.703125 135.910156 L 141.007812 132.230469 L 141.308594 128.554688 L 141.609375 124.875 L 141.910156 121.199219 L 142.210938 117.519531 L 142.515625 113.84375 L 141.519531 113.765625 L 141.25 117.445312 L 140.984375 121.128906 L 140.71875 124.808594 L 140.449219 128.488281 L 140.183594 132.167969 L 139.914062 135.847656 L 139.648438 139.53125 L 139.382812 143.210938 L 139.113281 146.890625 L 138.847656 150.570312 L 138.578125 154.25 L 138.3125 157.933594 L 138.042969 161.613281 L 137.511719 168.972656 L 137.242188 172.652344 L 136.976562 176.335938 L 136.707031 180.015625 L 136.175781 187.375 L 135.90625 191.054688 L 135.640625 194.738281 L 135.371094 198.417969 L 135.105469 202.097656 L 134.835938 205.777344 L 134.570312 209.457031 L 134.304688 213.140625 L 134.035156 216.820312 Z M 133.769531 220.5 "/>
<path fill-rule="nonzero" fill="rgb(90.588235%, 43.529412%, 31.764706%)" fill-opacity="1" d="M 133.769531 220.5 L 134.035156 216.820312 L 134.304688 213.140625 L 134.570312 209.457031 L 134.835938 205.777344 L 135.105469 202.097656 L 135.371094 198.417969 L 135.640625 194.738281 L 135.90625 191.054688 L 136.175781 187.375 L 136.707031 180.015625 L 136.976562 176.335938 L 137.242188 172.652344 L 137.511719 168.972656 L 138.042969 161.613281 L 138.3125 157.933594 L 138.578125 154.25 L 138.847656 150.570312 L 139.113281 146.890625 L 139.382812 143.210938 L 139.648438 139.53125 L 139.914062 135.847656 L 140.183594 132.167969 L 140.449219 128.488281 L 140.71875 124.808594 L 140.984375 121.128906 L 141.25 117.445312 L 141.519531 113.765625 L 139.042969 113.613281 L 138.859375 117.300781 L 138.679688 120.988281 L 138.496094 124.671875 L 138.3125 128.359375 L 138.132812 132.042969 L 137.949219 135.730469 L 137.769531 139.414062 L 137.585938 143.101562 L 137.40625 146.785156 L 137.222656 150.472656 L 137.042969 154.15625 L 136.859375 157.84375 L 136.679688 161.527344 L 136.496094 165.214844 L 136.3125 168.898438 L 136.132812 172.585938 L 135.949219 176.273438 L 135.769531 179.957031 L 135.585938 183.644531 L 135.40625 187.328125 L 135.222656 191.015625 L 135.042969 194.699219 L 134.859375 198.386719 L 134.679688 202.070312 L 134.496094 205.757812 L 134.3125 209.441406 L 134.132812 213.128906 L 133.949219 216.8125 Z M 133.769531 220.5 "/>
<path fill-rule="nonzero" fill="rgb(91.372549%, 76.862745%, 41.568627%)" fill-opacity="1" d="M 133.769531 220.5 L 133.949219 216.8125 L 134.132812 213.128906 L 134.3125 209.441406 L 134.496094 205.757812 L 134.679688 202.070312 L 134.859375 198.386719 L 135.042969 194.699219 L 135.222656 191.015625 L 135.40625 187.328125 L 135.585938 183.644531 L 135.769531 179.957031 L 135.949219 176.273438 L 136.132812 172.585938 L 136.3125 168.898438 L 136.496094 165.214844 L 136.679688 161.527344 L 136.859375 157.84375 L 137.042969 154.15625 L 137.222656 150.472656 L 137.40625 146.785156 L 137.585938 143.101562 L 137.769531 139.414062 L 137.949219 135.730469 L 138.132812 132.042969 L 138.3125 128.359375 L 138.496094 124.671875 L 138.679688 120.988281 L 138.859375 117.300781 L 139.042969 113.613281 L 138.746094 113.601562 L 138.574219 117.285156 L 138.230469 124.660156 L 138.058594 128.34375 L 137.714844 135.71875 L 137.542969 139.402344 L 137.199219 146.777344 L 137.027344 150.460938 L 136.855469 154.148438 L 136.6875 157.835938 L 136.515625 161.519531 L 136.171875 168.894531 L 136 172.578125 L 135.65625 179.953125 L 135.484375 183.636719 L 135.140625 191.011719 L 134.96875 194.695312 L 134.625 202.070312 L 134.453125 205.753906 L 134.285156 209.441406 L 134.113281 213.128906 L 133.941406 216.8125 Z M 133.769531 220.5 "/>
<path fill-rule="nonzero" fill="rgb(95.686275%, 63.529412%, 38.039216%)" fill-opacity="1" d="M 133.769531 220.5 L 133.941406 216.8125 L 134.113281 213.128906 L 134.285156 209.441406 L 134.453125 205.753906 L 134.625 202.070312 L 134.96875 194.695312 L 135.140625 191.011719 L 135.484375 183.636719 L 135.65625 179.953125 L 136 172.578125 L 136.171875 168.894531 L 136.515625 161.519531 L 136.6875 157.835938 L 136.855469 154.148438 L 137.027344 150.460938 L 137.199219 146.777344 L 137.542969 139.402344 L 137.714844 135.71875 L 138.058594 128.34375 L 138.230469 124.660156 L 138.574219 117.285156 L 138.746094 113.601562 L 133.769531 113.484375 Z M 133.769531 220.5 "/>
<path fill-rule="nonzero" fill="rgb(14.901961%, 27.45098%, 32.54902%)" fill-opacity="1" d="M 406.785156 220.5 L 406.785156 113.484375 L 403.160156 113.546875 L 399.535156 113.730469 L 395.921875 114.039062 L 392.320312 114.46875 L 388.734375 115.019531 L 385.171875 115.691406 L 381.628906 116.484375 L 378.121094 117.394531 L 374.640625 118.425781 L 371.199219 119.574219 L 367.800781 120.839844 L 364.445312 122.21875 L 361.140625 123.707031 L 357.886719 125.3125 L 354.6875 127.023438 L 351.550781 128.84375 L 348.472656 130.765625 L 345.464844 132.792969 L 342.53125 134.921875 L 339.667969 137.148438 L 336.878906 139.472656 L 334.175781 141.890625 L 331.550781 144.394531 L 329.015625 146.988281 L 326.570312 149.667969 L 324.214844 152.425781 L 321.953125 155.261719 L 319.792969 158.175781 L 317.730469 161.160156 L 315.769531 164.210938 L 313.914062 167.328125 L 312.164062 170.507812 L 310.527344 173.742188 L 308.996094 177.03125 L 307.578125 180.371094 L 306.277344 183.757812 L 305.089844 187.183594 L 304.019531 190.648438 L 303.066406 194.148438 L 302.230469 197.679688 L 301.519531 201.234375 L 300.925781 204.816406 L 300.457031 208.410156 L 300.105469 212.023438 L 299.882812 215.640625 L 299.777344 219.269531 L 299.796875 222.894531 L 299.941406 226.519531 L 300.207031 230.136719 L 300.59375 233.746094 L 301.101562 237.335938 L 301.734375 240.90625 L 302.488281 244.457031 L 303.359375 247.976562 L 304.347656 251.46875 L 305.457031 254.921875 L 306.683594 258.335938 L 308.023438 261.707031 L 309.476562 265.03125 L 311.039062 268.300781 L 312.714844 271.519531 L 314.5 274.679688 L 316.386719 277.773438 L 318.378906 280.804688 L 320.476562 283.765625 L 322.667969 286.65625 L 324.960938 289.46875 L 327.34375 292.203125 L 329.820312 294.851562 L 332.382812 297.417969 L 335.035156 299.894531 L 337.765625 302.28125 L 340.578125 304.574219 L 343.464844 306.769531 L 346.425781 308.867188 L 349.453125 310.863281 L 352.550781 312.753906 L 355.707031 314.539062 L 358.921875 316.214844 L 362.195312 317.78125 L 365.515625 319.238281 L 368.886719 320.578125 L 372.300781 321.804688 L 375.753906 322.917969 L 379.242188 323.910156 L 382.761719 324.785156 L 386.3125 325.539062 L 389.882812 326.171875 L 393.472656 326.683594 L 397.082031 327.074219 L 400.699219 327.339844 L 404.324219 327.488281 L 407.949219 327.507812 L 411.574219 327.40625 L 415.195312 327.183594 L 418.808594 326.835938 L 422.402344 326.371094 L 425.984375 325.777344 L 429.539062 325.066406 L 433.070312 324.238281 L 436.570312 323.285156 L 440.039062 322.21875 L 443.464844 321.03125 L 446.851562 319.730469 L 450.191406 318.316406 L 453.480469 316.789062 L 456.71875 315.152344 L 459.898438 313.40625 L 463.015625 311.550781 L 466.070312 309.59375 L 469.054688 307.53125 L 471.96875 305.371094 L 474.808594 303.113281 L 477.570312 300.761719 L 480.25 298.316406 L 482.84375 295.78125 L 485.351562 293.160156 L 487.769531 290.457031 L 490.09375 287.671875 L 492.320312 284.808594 L 494.453125 281.875 L 496.480469 278.867188 L 498.40625 275.792969 L 500.230469 272.65625 L 501.945312 269.460938 L 503.546875 266.207031 L 505.042969 262.902344 L 506.421875 259.546875 L 507.6875 256.148438 L 508.839844 252.707031 L 509.871094 249.230469 L 510.785156 245.722656 L 511.582031 242.183594 L 512.253906 238.617188 L 512.808594 235.03125 L 513.242188 231.429688 L 513.550781 227.816406 L 513.738281 224.195312 L 513.800781 220.566406 L 513.742188 216.941406 L 513.558594 213.316406 L 513.253906 209.703125 L 512.828125 206.101562 L 512.277344 202.515625 L 511.609375 198.949219 L 510.816406 195.410156 L 509.90625 191.898438 L 508.878906 188.421875 L 507.734375 184.980469 L 506.472656 181.578125 L 505.09375 178.222656 L 503.605469 174.914062 L 502.003906 171.660156 L 500.296875 168.460938 L 498.476562 165.320312 L 496.554688 162.246094 L 494.53125 159.238281 L 492.402344 156.296875 L 490.179688 153.433594 L 487.855469 150.644531 L 485.441406 147.9375 L 482.9375 145.3125 L 480.347656 142.777344 L 477.671875 140.328125 L 474.914062 137.972656 L 472.078125 135.710938 L 469.164062 133.546875 L 466.183594 131.480469 L 463.132812 129.519531 L 460.015625 127.664062 L 456.839844 125.910156 L 453.605469 124.269531 L 450.316406 122.738281 L 446.976562 121.320312 L 443.59375 120.015625 L 440.167969 118.824219 L 436.703125 117.75 L 433.203125 116.796875 L 429.671875 115.960938 L 426.117188 115.246094 L 422.539062 114.652344 L 418.941406 114.175781 L 415.332031 113.828125 L 415.035156 117.503906 L 414.742188 121.183594 L 414.445312 124.863281 L 414.152344 128.539062 L 413.859375 132.21875 L 413.5625 135.898438 L 413.269531 139.574219 L 412.972656 143.253906 L 412.679688 146.933594 L 412.382812 150.609375 L 411.796875 157.96875 L 411.5 161.644531 L 411.207031 165.324219 L 410.910156 169.003906 L 410.617188 172.679688 L 410.320312 176.359375 L 410.027344 180.039062 L 409.730469 183.714844 L 409.144531 191.074219 L 408.847656 194.75 L 408.554688 198.429688 L 408.257812 202.109375 L 407.964844 205.785156 L 407.667969 209.464844 L 407.375 213.144531 L 407.082031 216.820312 Z M 406.785156 220.5 "/>
<path fill-rule="nonzero" fill="rgb(54.117647%, 69.411765%, 49.019608%)" fill-opacity="1" d="M 406.785156 220.5 L 407.082031 216.820312 L 407.375 213.144531 L 407.667969 209.464844 L 407.964844 205.785156 L 408.257812 202.109375 L 408.554688 198.429688 L 408.847656 194.75 L 409.144531 191.074219 L 409.730469 183.714844 L 410.027344 180.039062 L 410.320312 176.359375 L 410.617188 172.679688 L 410.910156 169.003906 L 411.207031 165.324219 L 411.5 161.644531 L 411.796875 157.96875 L 412.382812 150.609375 L 412.679688 146.933594 L 412.972656 143.253906 L 413.269531 139.574219 L 413.5625 135.898438 L 413.859375 132.21875 L 414.152344 128.539062 L 414.445312 124.863281 L 414.742188 121.183594 L 415.035156 117.503906 L 415.332031 113.828125 L 415.328125 113.828125 L 415.035156 117.503906 L 414.738281 121.183594 L 414.445312 124.863281 L 414.152344 128.539062 L 413.855469 132.21875 L 413.5625 135.898438 L 413.265625 139.574219 L 412.972656 143.253906 L 412.675781 146.933594 L 412.382812 150.609375 L 412.089844 154.289062 L 411.792969 157.96875 L 411.5 161.644531 L 411.203125 165.324219 L 410.910156 169.003906 L 410.617188 172.679688 L 410.320312 176.359375 L 410.027344 180.039062 L 409.730469 183.714844 L 409.4375 187.394531 L 409.140625 191.074219 L 408.847656 194.75 L 408.554688 198.429688 L 408.257812 202.109375 L 407.964844 205.785156 L 407.667969 209.464844 L 407.375 213.144531 L 407.082031 216.820312 Z M 406.785156 220.5 "/>
<path fill-rule="nonzero" fill="rgb(16.470588%, 61.568627%, 56.078431%)" fill-opacity="1" d="M 406.785156 220.5 L 407.082031 216.820312 L 407.375 213.144531 L 407.667969 209.464844 L 407.964844 205.785156 L 408.257812 202.109375 L 408.554688 198.429688 L 408.847656 194.75 L 409.140625 191.074219 L 409.4375 187.394531 L 409.730469 183.714844 L 410.027344 180.039062 L 410.320312 176.359375 L 410.617188 172.679688 L 410.910156 169.003906 L 411.203125 165.324219 L 411.5 161.644531 L 411.792969 157.96875 L 412.089844 154.289062 L 412.382812 150.609375 L 412.675781 146.933594 L 412.972656 143.253906 L 413.265625 139.574219 L 413.5625 135.898438 L 413.855469 132.21875 L 414.152344 128.539062 L 414.445312 124.863281 L 414.738281 121.183594 L 415.035156 117.503906 L 415.328125 113.828125 L 413.917969 113.722656 L 413.671875 117.40625 L 413.425781 121.085938 L 413.179688 124.769531 L 412.933594 128.449219 L 412.441406 135.816406 L 412.195312 139.496094 L 411.949219 143.179688 L 411.703125 146.859375 L 411.457031 150.542969 L 411.210938 154.222656 L 410.71875 161.589844 L 410.472656 165.269531 L 410.230469 168.953125 L 409.984375 172.632812 L 409.492188 180 L 409.246094 183.679688 L 409 187.363281 L 408.753906 191.042969 L 408.507812 194.726562 L 408.261719 198.40625 L 407.769531 205.773438 L 407.523438 209.453125 L 407.277344 213.136719 L 407.03125 216.816406 Z M 406.785156 220.5 "/>
<path fill-rule="nonzero" fill="rgb(90.588235%, 43.529412%, 31.764706%)" fill-opacity="1" d="M 406.785156 220.5 L 407.03125 216.816406 L 407.277344 213.136719 L 407.523438 209.453125 L 407.769531 205.773438 L 408.261719 198.40625 L 408.507812 194.726562 L 408.753906 191.042969 L 409 187.363281 L 409.246094 183.679688 L 409.492188 180 L 409.984375 172.632812 L 410.230469 168.953125 L 410.472656 165.269531 L 410.71875 161.589844 L 411.210938 154.222656 L 411.457031 150.542969 L 411.703125 146.859375 L 411.949219 143.179688 L 412.195312 139.496094 L 412.441406 135.816406 L 412.933594 128.449219 L 413.179688 124.769531 L 413.425781 121.085938 L 413.671875 117.40625 L 413.917969 113.722656 L 409.847656 113.527344 L 409.742188 117.21875 L 409.53125 124.59375 L 409.425781 128.285156 L 409.109375 139.347656 L 409.003906 143.039062 L 408.792969 150.414062 L 408.6875 154.105469 L 408.476562 161.480469 L 408.371094 165.171875 L 408.054688 176.234375 L 407.949219 179.925781 L 407.738281 187.300781 L 407.628906 190.992188 L 407.417969 198.367188 L 407.3125 202.058594 L 406.996094 213.121094 L 406.890625 216.8125 Z M 406.785156 220.5 "/>
<path fill-rule="nonzero" fill="rgb(91.372549%, 76.862745%, 41.568627%)" fill-opacity="1" d="M 406.785156 220.5 L 406.890625 216.8125 L 406.996094 213.121094 L 407.3125 202.058594 L 407.417969 198.367188 L 407.628906 190.992188 L 407.738281 187.300781 L 407.949219 179.925781 L 408.054688 176.234375 L 408.371094 165.171875 L 408.476562 161.480469 L 408.6875 154.105469 L 408.792969 150.414062 L 409.003906 143.039062 L 409.109375 139.347656 L 409.425781 128.285156 L 409.53125 124.59375 L 409.742188 117.21875 L 409.847656 113.527344 L 408.980469 113.507812 L 408.902344 117.195312 L 408.828125 120.886719 L 408.753906 124.574219 L 408.675781 128.265625 L 408.601562 131.953125 L 408.523438 135.644531 L 408.449219 139.332031 L 408.375 143.023438 L 408.296875 146.710938 L 408.222656 150.402344 L 408.148438 154.089844 L 408.070312 157.78125 L 407.996094 161.46875 L 407.921875 165.160156 L 407.84375 168.847656 L 407.769531 172.539062 L 407.691406 176.226562 L 407.617188 179.917969 L 407.542969 183.605469 L 407.464844 187.296875 L 407.390625 190.984375 L 407.316406 194.675781 L 407.238281 198.363281 L 407.164062 202.054688 L 407.089844 205.742188 L 407.011719 209.433594 L 406.9375 213.121094 L 406.859375 216.8125 Z M 406.785156 220.5 "/>
<path fill-rule="nonzero" fill="rgb(95.686275%, 63.529412%, 38.039216%)" fill-opacity="1" d="M 406.785156 220.5 L 406.859375 216.8125 L 406.9375 213.121094 L 407.011719 209.433594 L 407.089844 205.742188 L 407.164062 202.054688 L 407.238281 198.363281 L 407.316406 194.675781 L 407.390625 190.984375 L 407.464844 187.296875 L 407.542969 183.605469 L 407.617188 179.917969 L 407.691406 176.226562 L 407.769531 172.539062 L 407.84375 168.847656 L 407.921875 165.160156 L 407.996094 161.46875 L 408.070312 157.78125 L 408.148438 154.089844 L 408.222656 150.402344 L 408.296875 146.710938 L 408.375 143.023438 L 408.449219 139.332031 L 408.523438 135.644531 L 408.601562 131.953125 L 408.675781 128.265625 L 408.753906 124.574219 L 408.828125 120.886719 L 408.902344 117.195312 L 408.980469 113.507812 L 406.785156 113.484375 Z M 406.785156 220.5 "/>
<path fill-rule="nonzero" fill="rgb(14.901961%, 27.45098%, 32.54902%)" fill-opacity="1" d="M 679.800781 220.5 L 679.800781 113.484375 L 676.171875 113.546875 L 672.546875 113.730469 L 668.929688 114.039062 L 665.324219 114.46875 L 661.734375 115.019531 L 658.167969 115.695312 L 654.625 116.488281 L 651.109375 117.402344 L 647.628906 118.4375 L 644.183594 119.585938 L 640.78125 120.851562 L 637.421875 122.234375 L 634.113281 123.726562 L 630.855469 125.332031 L 627.65625 127.050781 L 624.515625 128.871094 L 621.441406 130.800781 L 618.429688 132.832031 L 615.492188 134.964844 L 612.628906 137.195312 L 609.839844 139.523438 L 607.132812 141.941406 L 604.511719 144.453125 L 601.972656 147.050781 L 599.527344 149.734375 L 597.171875 152.496094 L 594.914062 155.339844 L 592.75 158.257812 L 590.6875 161.246094 L 588.730469 164.304688 L 586.875 167.425781 L 585.128906 170.609375 L 583.492188 173.847656 L 581.964844 177.140625 L 580.550781 180.488281 L 579.25 183.875 L 578.066406 187.308594 L 576.996094 190.78125 L 576.046875 194.285156 L 575.21875 197.820312 L 574.507812 201.378906 L 573.921875 204.964844 L 573.457031 208.5625 L 573.113281 212.179688 L 572.890625 215.804688 L 572.792969 219.433594 L 572.816406 223.0625 L 572.964844 226.691406 L 573.238281 230.3125 L 573.632812 233.921875 L 574.148438 237.515625 L 574.785156 241.089844 L 575.546875 244.640625 L 576.425781 248.164062 L 577.421875 251.65625 L 578.539062 255.109375 L 579.769531 258.523438 L 581.117188 261.898438 L 582.578125 265.222656 L 584.152344 268.492188 L 585.835938 271.710938 L 587.628906 274.867188 L 589.523438 277.964844 L 591.527344 280.992188 L 593.628906 283.953125 L 595.832031 286.839844 L 598.128906 289.652344 L 600.523438 292.382812 L 603.007812 295.03125 L 605.582031 297.59375 L 608.238281 300.066406 L 610.980469 302.449219 L 613.796875 304.734375 L 616.695312 306.925781 L 619.664062 309.015625 L 622.699219 311.007812 L 625.804688 312.890625 L 628.96875 314.671875 L 632.191406 316.339844 L 635.472656 317.902344 L 638.800781 319.347656 L 642.179688 320.683594 L 645.597656 321.902344 L 649.058594 323.003906 L 652.554688 323.988281 L 656.078125 324.851562 L 659.632812 325.597656 L 663.210938 326.222656 L 666.804688 326.722656 L 670.417969 327.101562 L 674.039062 327.359375 L 677.667969 327.492188 L 681.296875 327.503906 L 684.925781 327.390625 L 688.550781 327.15625 L 692.164062 326.796875 L 695.761719 326.316406 L 699.34375 325.714844 L 702.902344 324.992188 L 706.433594 324.148438 L 709.933594 323.183594 L 713.402344 322.105469 L 716.828125 320.90625 L 720.214844 319.59375 L 723.550781 318.164062 L 726.839844 316.625 L 730.074219 314.972656 L 733.25 313.210938 L 736.363281 311.347656 L 739.414062 309.375 L 742.394531 307.300781 L 745.300781 305.128906 L 748.136719 302.859375 L 750.890625 300.492188 L 753.5625 298.035156 L 756.152344 295.488281 L 758.652344 292.855469 L 761.058594 290.136719 L 763.375 287.339844 L 765.59375 284.46875 L 767.714844 281.519531 L 769.734375 278.503906 L 771.652344 275.417969 L 773.460938 272.269531 L 775.164062 269.0625 L 776.757812 265.800781 L 778.238281 262.484375 L 779.605469 259.121094 L 780.859375 255.714844 L 781.996094 252.265625 L 783.011719 248.78125 L 783.914062 245.261719 L 784.691406 241.714844 L 785.351562 238.144531 L 785.890625 234.554688 L 786.304688 230.949219 L 786.597656 227.328125 L 786.769531 223.703125 L 786.816406 220.070312 L 786.742188 216.441406 L 786.542969 212.816406 L 786.21875 209.199219 L 785.773438 205.597656 L 785.207031 202.007812 L 784.519531 198.445312 L 783.710938 194.90625 L 782.785156 191.394531 L 781.738281 187.917969 L 780.574219 184.476562 L 779.292969 181.082031 L 777.898438 177.726562 L 776.390625 174.425781 L 774.773438 171.175781 L 773.042969 167.980469 L 771.207031 164.847656 L 769.269531 161.777344 L 767.222656 158.777344 L 765.082031 155.847656 L 762.835938 152.992188 L 760.5 150.214844 L 758.070312 147.515625 L 755.546875 144.902344 L 752.941406 142.378906 L 750.246094 139.941406 L 747.472656 137.597656 L 744.621094 135.351562 L 741.695312 133.199219 L 738.699219 131.152344 L 735.632812 129.203125 L 732.503906 127.363281 L 729.316406 125.628906 L 726.066406 124.003906 L 722.769531 122.488281 L 719.417969 121.085938 L 716.023438 119.800781 L 712.585938 118.628906 L 709.109375 117.578125 L 705.601562 116.640625 L 702.066406 115.828125 L 698.5 115.132812 L 694.914062 114.558594 L 691.3125 114.105469 L 687.695312 113.777344 L 684.070312 113.570312 L 683.925781 117.257812 L 683.628906 124.632812 L 683.484375 128.320312 L 683.1875 135.695312 L 683.042969 139.378906 L 682.597656 150.441406 L 682.453125 154.128906 L 682.15625 161.503906 L 682.011719 165.191406 L 681.714844 172.566406 L 681.570312 176.253906 L 681.273438 183.628906 L 681.128906 187.316406 L 680.980469 191.003906 L 680.832031 194.6875 L 680.6875 198.375 L 680.390625 205.75 L 680.246094 209.4375 Z M 679.800781 220.5 "/>
<path fill-rule="nonzero" fill="rgb(54.117647%, 69.411765%, 49.019608%)" fill-opacity="1" d="M 679.800781 220.5 L 680.246094 209.4375 L 680.390625 205.75 L 680.6875 198.375 L 680.832031 194.6875 L 680.980469 191.003906 L 681.128906 187.316406 L 681.273438 183.628906 L 681.570312 176.253906 L 681.714844 172.566406 L 682.011719 165.191406 L 682.15625 161.503906 L 682.453125 154.128906 L 682.597656 150.441406 L 683.042969 139.378906 L 683.1875 135.695312 L 683.484375 128.320312 L 683.628906 124.632812 L 683.925781 117.257812 L 684.070312 113.570312 L 683.925781 117.257812 L 683.628906 124.632812 L 683.484375 128.320312 L 683.1875 135.695312 L 683.039062 139.378906 L 682.894531 143.066406 L 682.597656 150.441406 L 682.453125 154.128906 L 682.15625 161.503906 L 682.011719 165.191406 L 681.714844 172.566406 L 681.570312 176.253906 L 681.273438 183.628906 L 681.128906 187.316406 L 680.980469 191.003906 L 680.832031 194.6875 L 680.6875 198.375 L 680.242188 209.4375 L 680.097656 213.125 Z M 679.800781 220.5 "/>
<path fill-rule="nonzero" fill="rgb(16.470588%, 61.568627%, 56.078431%)" fill-opacity="1" d="M 679.800781 220.5 L 680.097656 213.125 L 680.242188 209.4375 L 680.6875 198.375 L 680.832031 194.6875 L 680.980469 191.003906 L 681.128906 187.316406 L 681.273438 183.628906 L 681.570312 176.253906 L 681.714844 172.566406 L 682.011719 165.191406 L 682.15625 161.503906 L 682.453125 154.128906 L 682.597656 150.441406 L 682.894531 143.066406 L 683.039062 139.378906 L 683.1875 135.695312 L 683.484375 128.320312 L 683.628906 124.632812 L 683.925781 117.257812 L 684.070312 113.570312 L 683.453125 113.546875 L 683.324219 117.234375 L 683.199219 120.921875 L 683.074219 124.613281 L 682.824219 131.988281 L 682.695312 135.675781 L 682.195312 150.425781 L 682.066406 154.117188 L 681.691406 165.179688 L 681.5625 168.867188 L 681.3125 176.242188 L 681.1875 179.933594 L 681.0625 183.621094 L 680.933594 187.308594 L 680.433594 202.058594 L 680.304688 205.746094 L 680.179688 209.4375 L 679.929688 216.8125 Z M 679.800781 220.5 "/>
<path fill-rule="nonzero" fill="rgb(90.588235%, 43.529412%, 31.764706%)" fill-opacity="1" d="M 679.800781 220.5 L 679.929688 216.8125 L 680.179688 209.4375 L 680.304688 205.746094 L 680.433594 202.058594 L 680.933594 187.308594 L 681.0625 183.621094 L 681.1875 179.933594 L 681.3125 176.242188 L 681.5625 168.867188 L 681.691406 165.179688 L 682.066406 154.117188 L 682.195312 150.425781 L 682.695312 135.675781 L 682.824219 131.988281 L 683.074219 124.613281 L 683.199219 120.921875 L 683.324219 117.234375 L 683.453125 113.546875 L 680.574219 113.488281 L 680.546875 117.179688 L 680.519531 120.867188 L 680.492188 124.558594 L 680.46875 128.25 L 680.441406 131.9375 L 680.414062 135.628906 L 680.386719 139.316406 L 680.359375 143.007812 L 680.335938 146.699219 L 680.308594 150.386719 L 680.253906 157.769531 L 680.226562 161.457031 L 680.203125 165.148438 L 680.175781 168.839844 L 680.148438 172.527344 L 680.09375 179.910156 L 680.070312 183.597656 L 680.015625 190.980469 L 679.988281 194.667969 L 679.933594 202.050781 L 679.910156 205.738281 L 679.855469 213.121094 L 679.828125 216.808594 Z M 679.800781 220.5 "/>
<path fill-rule="nonzero" fill="rgb(91.372549%, 76.862745%, 41.568627%)" fill-opacity="1" d="M 679.800781 220.5 L 679.828125 216.808594 L 679.855469 213.121094 L 679.910156 205.738281 L 679.933594 202.050781 L 679.988281 194.667969 L 680.015625 190.980469 L 680.070312 183.597656 L 680.09375 179.910156 L 680.148438 172.527344 L 680.175781 168.839844 L 680.203125 165.148438 L 680.226562 161.457031 L 680.253906 157.769531 L 680.308594 150.386719 L 680.335938 146.699219 L 680.359375 143.007812 L 680.386719 139.316406 L 680.414062 135.628906 L 680.441406 131.9375 L 680.46875 128.25 L 680.492188 124.558594 L 680.519531 120.867188 L 680.546875 117.179688 L 680.574219 113.488281 L 680.253906 113.484375 L 680.222656 120.867188 L 680.207031 124.554688 L 680.175781 131.9375 L 680.160156 135.625 L 680.128906 143.007812 L 680.113281 146.695312 L 680.066406 157.769531 L 680.050781 161.457031 L 680.019531 168.839844 L 680.003906 172.527344 L 679.972656 179.910156 L 679.957031 183.597656 L 679.925781 190.980469 L 679.910156 194.667969 L 679.878906 202.050781 L 679.863281 205.738281 L 679.832031 213.121094 L 679.816406 216.808594 Z M 679.800781 220.5 "/>
<path fill-rule="nonzero" fill="rgb(95.686275%, 63.529412%, 38.039216%)" fill-opacity="1" d="M 679.800781 220.5 L 679.816406 216.808594 L 679.832031 213.121094 L 679.863281 205.738281 L 679.878906 202.050781 L 679.910156 194.667969 L 679.925781 190.980469 L 679.957031 183.597656 L 679.972656 179.910156 L 680.003906 172.527344 L 680.019531 168.839844 L 680.050781 161.457031 L 680.066406 157.769531 L 680.113281 146.695312 L 680.128906 143.007812 L 680.160156 135.625 L 680.175781 131.9375 L 680.207031 124.554688 L 680.222656 120.867188 L 680.253906 113.484375 L 679.800781 113.484375 Z M 679.800781 220.5 "/>
<g clip-path="url(#clip-0)">
<g fill="rgb(0%, 0%, 0%)" fill-opacity="1">
<use xlink:href="#glyph-0-0" x="118.269531" y="85.145508"/>
<use xlink:href="#glyph-0-1" x="125.269531" y="85.145508"/>
<use xlink:href="#glyph-0-2" x="130.269531" y="85.145508"/>
<use xlink:href="#glyph-0-3" x="134.269531" y="85.145508"/>
<use xlink:href="#glyph-0-4" x="139.269531" y="85.145508"/>
<use xlink:href="#glyph-0-5" x="144.269531" y="85.145508"/>
</g>
</g>
<g fill="rgb(0%, 0%, 0%)" fill-opacity="1">
<use xlink:href="#glyph-0-6" x="384.285156" y="85.145508"/>
<use xlink:href="#glyph-0-3" x="389.285156" y="85.145508"/>
<use xlink:href="#glyph-0-7" x="394.285156" y="85.145508"/>
<use xlink:href="#glyph-0-8" x="396.285156" y="85.145508"/>
<use xlink:href="#glyph-0-9" x="402.285156" y="85.145508"/>
<use xlink:href="#glyph-0-1" x="407.285156" y="85.145508"/>
<use xlink:href="#glyph-0-4" x="412.285156" y="85.145508"/>
<use xlink:href="#glyph-0-10" x="417.285156" y="85.145508"/>
<use xlink:href="#glyph-0-11" x="419.285156" y="85.145508"/>
<use xlink:href="#glyph-0-4" x="424.285156" y="85.145508"/>
</g>
<g clip-path="url(#clip-1)">
<g fill="rgb(0%, 0%, 0%)" fill-opacity="1">
<use xlink:href="#glyph-0-12" x="664.300781" y="85.145508"/>
<use xlink:href="#glyph-0-3" x="671.300781" y="85.145508"/>
<use xlink:href="#glyph-0-2" x="676.300781" y="85.145508"/>
<use xlink:href="#glyph-0-11" x="680.300781" y="85.145508"/>
<use xlink:href="#glyph-0-13" x="685.300781" y="85.145508"/>
<use xlink:href="#glyph-0-13" x="688.300781" y="85.145508"/>
<use xlink:href="#glyph-0-5" x="690.300781" y="85.145508"/>
</g>
</g>
<g fill="rgb(0%, 0%, 0%)" fill-opacity="1">
<use xlink:href="#glyph-1-0" x="819.242188" y="169.44043"/>
<use xlink:href="#glyph-1-1" x="824.242188" y="169.44043"/>
<use xlink:href="#glyph-1-2" x="830.242188" y="169.44043"/>
<use xlink:href="#glyph-1-3" x="834.242188" y="169.44043"/>
<use xlink:href="#glyph-1-1" x="836.242188" y="169.44043"/>
<use xlink:href="#glyph-1-4" x="842.242188" y="169.44043"/>
<use xlink:href="#glyph-1-5" x="848.242188" y="169.44043"/>
<use xlink:href="#glyph-1-6" x="850.242188" y="169.44043"/>
</g>
<path fill-rule="nonzero" fill="rgb(14.901961%, 27.45098%, 32.54902%)" fill-opacity="1" d="M 819.949219 193.972656 L 835.8125 193.972656 L 835.8125 178.109375 L 819.949219 178.109375 Z M 819.949219 193.972656 "/>
<path fill-rule="nonzero" fill="rgb(54.117647%, 69.411765%, 49.019608%)" fill-opacity="1" d="M 819.949219 211.25 L 835.8125 211.25 L 835.8125 195.386719 L 819.949219 195.386719 Z M 819.949219 211.25 "/>
<path fill-rule="nonzero" fill="rgb(16.470588%, 61.568627%, 56.078431%)" fill-opacity="1" d="M 819.949219 228.53125 L 835.8125 228.53125 L 835.8125 212.667969 L 819.949219 212.667969 Z M 819.949219 228.53125 "/>
<path fill-rule="nonzero" fill="rgb(90.588235%, 43.529412%, 31.764706%)" fill-opacity="1" d="M 819.949219 245.8125 L 835.8125 245.8125 L 835.8125 229.949219 L 819.949219 229.949219 Z M 819.949219 245.8125 "/>
<path fill-rule="nonzero" fill="rgb(91.372549%, 76.862745%, 41.568627%)" fill-opacity="1" d="M 819.949219 263.089844 L 835.8125 263.089844 L 835.8125 247.226562 L 819.949219 247.226562 Z M 819.949219 263.089844 "/>
<path fill-rule="nonzero" fill="rgb(95.686275%, 63.529412%, 38.039216%)" fill-opacity="1" d="M 819.949219 280.371094 L 835.8125 280.371094 L 835.8125 264.507812 L 819.949219 264.507812 Z M 819.949219 280.371094 "/>
<g fill="rgb(0%, 0%, 0%)" fill-opacity="1">
<use xlink:href="#glyph-0-4" x="842" y="188.954102"/>
<use xlink:href="#glyph-0-14" x="847" y="188.954102"/>
<use xlink:href="#glyph-0-15" x="852" y="188.954102"/>
</g>
<g fill="rgb(0%, 0%, 0%)" fill-opacity="1">
<use xlink:href="#glyph-0-16" x="842" y="206.235352"/>
<use xlink:href="#glyph-0-1" x="846" y="206.235352"/>
<use xlink:href="#glyph-0-17" x="851" y="206.235352"/>
<use xlink:href="#glyph-0-11" x="854" y="206.235352"/>
</g>
<g fill="rgb(0%, 0%, 0%)" fill-opacity="1">
<use xlink:href="#glyph-0-18" x="842" y="223.516602"/>
<use xlink:href="#glyph-0-11" x="849" y="223.516602"/>
<use xlink:href="#glyph-0-17" x="854" y="223.516602"/>
<use xlink:href="#glyph-0-13" x="857" y="223.516602"/>
<use xlink:href="#glyph-0-10" x="859" y="223.516602"/>
</g>
<g fill="rgb(0%, 0%, 0%)" fill-opacity="1">
<use xlink:href="#glyph-0-16" x="842" y="240.793945"/>
<use xlink:href="#glyph-0-19" x="846" y="240.793945"/>
<use xlink:href="#glyph-0-11" x="850" y="240.793945"/>
<use xlink:href="#glyph-0-20" x="855" y="240.793945"/>
</g>
<g fill="rgb(0%, 0%, 0%)" fill-opacity="1">
<use xlink:href="#glyph-0-19" x="842" y="258.075195"/>
<use xlink:href="#glyph-0-21" x="846" y="258.075195"/>
<use xlink:href="#glyph-0-11" x="851" y="258.075195"/>
<use xlink:href="#glyph-0-18" x="856" y="258.075195"/>
</g>
<g fill="rgb(0%, 0%, 0%)" fill-opacity="1">
<use xlink:href="#glyph-0-5" x="842" y="275.356445"/>
<use xlink:href="#glyph-0-22" x="847" y="275.356445"/>
<use xlink:href="#glyph-0-17" x="852" y="275.356445"/>
<use xlink:href="#glyph-0-11" x="855" y="275.356445"/>
<use xlink:href="#glyph-0-23" x="860" y="275.356445"/>
</g>
</svg>
